<?xml version="1.0" encoding="utf-8"?>
<!-- Generator: Adobe Illustrator 19.1.0, SVG Export Plug-In . SVG Version: 6.00 Build 0)  -->
<svg version="1.1" id="Layer_1" xmlns="http://www.w3.org/2000/svg" xmlns:xlink="http://www.w3.org/1999/xlink" x="0px" y="0px"
	 viewBox="-341 243 16 16" style="enable-background:new -341 243 16 16;" xml:space="preserve">
<style type="text/css">
	.st0{fill:#828282;}
</style>
<path class="st0" d="M-340.8,258.6v-10.3h3.4v10.3H-340.8z M-339.1,246.9L-339.1,246.9c-1.2,0-1.9-0.8-1.9-1.8s0.8-1.8,1.9-1.8
	s1.9,0.8,1.9,1.8C-337.1,246.1-337.9,246.9-339.1,246.9L-339.1,246.9z"/>
<path class="st0" d="M-335.5,258.6c0,0,0-9.3,0-10.3h3.4v1.5l0,0c0.5-0.7,1.3-1.7,3.1-1.7c2.3,0,3.9,1.5,3.9,4.6v5.9h-3.4v-5.5
	c0-1.4-0.5-2.3-1.7-2.3c-0.9,0-1.5,0.6-1.8,1.3c-0.1,0.2-0.1,0.5-0.1,0.8v5.8h-3.4V258.6z"/>
</svg>
